<?xml version="1.0" encoding="iso-8859-1"?>
<!-- Generator: Adobe Illustrator 19.0.0, SVG Export Plug-In . SVG Version: 6.00 Build 0)  -->
<svg version="1.1" id="Capa_1" xmlns="http://www.w3.org/2000/svg" xmlns:xlink="http://www.w3.org/1999/xlink" x="0px" y="0px"
	 viewBox="0 0 480.004 480.004" style="enable-background:new 0 0 480.004 480.004;" xml:space="preserve">
<path style="fill:#FFC107;" d="M392.992,96.002L474.24,28.29c5.152-4.32,7.104-11.392,4.768-17.76
	C476.736,4.226,470.752,0.002,464,0.002H208c-8.832,0-16,7.168-16,16v160c0,8.832,7.168,16,16,16h256
	c6.752,0,12.736-4.224,15.04-10.56c2.304-6.336,0.384-13.44-4.768-17.76L392.992,96.002z"/>
<ellipse style="fill:#2196F3;" cx="208" cy="400.002" rx="208" ry="80"/>
<path style="fill:#455A64;" d="M208,416.002c-8.832,0-16-7.168-16-16v-384c0-8.832,7.168-16,16-16s16,7.168,16,16v384
	C224,408.834,216.832,416.002,208,416.002z"/>
<g>
</g>
<g>
</g>
<g>
</g>
<g>
</g>
<g>
</g>
<g>
</g>
<g>
</g>
<g>
</g>
<g>
</g>
<g>
</g>
<g>
</g>
<g>
</g>
<g>
</g>
<g>
</g>
<g>
</g>
</svg>
